<svg xmlns="http://www.w3.org/2000/svg" xmlns:xlink="http://www.w3.org/1999/xlink" width="500" zoomAndPan="magnify" viewBox="0 0 375 374.999991" height="500" preserveAspectRatio="xMidYMid meet" version="1.0"><defs><clipPath id="59ffdeacb4"><path d="M 108.886719 80.246094 L 266.113281 80.246094 L 266.113281 231.324219 L 108.886719 231.324219 Z M 108.886719 80.246094 " clip-rule="nonzero"/></clipPath><clipPath id="9e832d6365"><path d="M 161.324219 84.382812 C 169.359375 81.886719 178.546875 80.246094 187.542969 80.246094 C 196.535156 80.246094 205.191406 81.652344 213.167969 84.148438 C 213.335938 84.226562 213.507812 84.226562 213.675781 84.304688 C 243.628906 94.292969 265.691406 120.664062 266.113281 150.925781 L 266.113281 231.324219 L 108.886719 231.324219 L 108.886719 150.984375 C 109.308594 120.507812 131.03125 94.136719 161.324219 84.382812 Z M 161.324219 84.382812 " clip-rule="nonzero"/></clipPath><clipPath id="fa7129d6d6"><path d="M 136.140625 115.683594 L 238.890625 115.683594 L 238.890625 195.933594 L 136.140625 195.933594 Z M 136.140625 115.683594 " clip-rule="nonzero"/></clipPath></defs><g clip-path="url(#59ffdeacb4)"><g clip-path="url(#9e832d6365)"><path fill="#79a8ee" d="M 108.886719 80.246094 L 266.113281 80.246094 L 266.113281 231.324219 L 108.886719 231.324219 Z M 108.886719 80.246094 " fill-opacity="1" fill-rule="nonzero"/></g></g><g clip-path="url(#fa7129d6d6)"><path fill="#ffffff" d="M 238.566406 179.457031 C 238.566406 179.4375 238.582031 179.4375 238.582031 179.421875 C 238.601562 179.402344 238.617188 179.367188 238.636719 179.351562 C 238.636719 179.332031 238.652344 179.332031 238.652344 179.316406 C 238.671875 179.28125 238.6875 179.261719 238.6875 179.226562 C 238.6875 179.210938 238.707031 179.210938 238.707031 179.191406 C 238.722656 179.15625 238.722656 179.121094 238.742188 179.085938 C 238.742188 179.070312 238.742188 179.070312 238.757812 179.050781 C 238.777344 179.015625 238.777344 178.980469 238.792969 178.949219 C 238.792969 178.949219 238.792969 178.929688 238.792969 178.929688 C 238.792969 178.894531 238.8125 178.84375 238.8125 178.808594 C 238.8125 178.808594 238.8125 178.789062 238.8125 178.789062 C 238.8125 178.753906 238.8125 178.703125 238.8125 178.667969 C 238.8125 178.667969 238.8125 178.667969 238.8125 178.648438 C 238.8125 178.578125 238.8125 178.527344 238.792969 178.457031 C 238.792969 178.457031 238.792969 178.4375 238.792969 178.4375 C 238.777344 178.367188 238.757812 178.296875 238.742188 178.246094 C 238.742188 178.246094 238.742188 178.226562 238.742188 178.226562 C 238.671875 178.015625 238.566406 177.839844 238.425781 177.699219 C 238.335938 177.59375 238.230469 177.523438 238.109375 177.453125 C 238.109375 177.453125 238.09375 177.4375 238.09375 177.4375 C 238.039062 177.402344 237.96875 177.382812 237.917969 177.347656 L 214.84375 168.070312 L 230.359375 161.832031 C 230.394531 161.8125 230.429688 161.796875 230.464844 161.777344 C 230.484375 161.777344 230.484375 161.761719 230.5 161.761719 C 230.535156 161.742188 230.554688 161.726562 230.570312 161.707031 C 230.589844 161.691406 230.605469 161.691406 230.625 161.671875 C 230.640625 161.65625 230.660156 161.65625 230.675781 161.636719 C 230.695312 161.621094 230.730469 161.601562 230.746094 161.585938 C 230.746094 161.585938 230.746094 161.585938 230.765625 161.566406 C 230.871094 161.480469 230.957031 161.390625 231.027344 161.285156 C 231.097656 161.179688 231.167969 161.058594 231.203125 160.933594 C 231.222656 160.898438 231.222656 160.882812 231.222656 160.847656 C 231.222656 160.828125 231.238281 160.8125 231.238281 160.792969 C 231.238281 160.777344 231.238281 160.757812 231.257812 160.742188 C 231.257812 160.707031 231.273438 160.6875 231.273438 160.652344 C 231.273438 160.636719 231.273438 160.617188 231.273438 160.617188 C 231.273438 160.582031 231.273438 160.546875 231.273438 160.511719 L 231.273438 121.851562 C 231.273438 121.078125 230.640625 120.445312 229.867188 120.445312 L 224.839844 120.445312 L 216.96875 115.878906 C 216.953125 115.878906 216.953125 115.859375 216.933594 115.859375 C 216.898438 115.84375 216.882812 115.824219 216.847656 115.808594 C 216.828125 115.789062 216.792969 115.789062 216.777344 115.773438 C 216.742188 115.753906 216.707031 115.753906 216.6875 115.738281 C 216.671875 115.738281 216.636719 115.71875 216.617188 115.71875 C 216.582031 115.71875 216.546875 115.703125 216.511719 115.703125 C 216.496094 115.703125 216.460938 115.683594 216.441406 115.683594 C 216.40625 115.683594 216.371094 115.683594 216.335938 115.683594 C 216.320312 115.683594 216.285156 115.683594 216.265625 115.683594 C 216.230469 115.683594 216.195312 115.683594 216.160156 115.683594 C 216.144531 115.683594 216.109375 115.683594 216.089844 115.683594 C 216.054688 115.683594 216.003906 115.703125 215.96875 115.703125 C 215.949219 115.703125 215.933594 115.703125 215.914062 115.71875 C 215.863281 115.738281 215.808594 115.753906 215.757812 115.773438 L 187.464844 127.140625 L 159.207031 115.789062 C 159.207031 115.789062 159.1875 115.789062 159.1875 115.789062 C 159.136719 115.773438 159.082031 115.753906 159.03125 115.738281 C 158.976562 115.71875 158.925781 115.71875 158.871094 115.703125 C 158.855469 115.703125 158.835938 115.703125 158.835938 115.703125 C 158.800781 115.703125 158.765625 115.703125 158.714844 115.683594 C 158.695312 115.683594 158.679688 115.683594 158.660156 115.683594 C 158.625 115.683594 158.574219 115.683594 158.539062 115.683594 C 158.519531 115.683594 158.519531 115.683594 158.503906 115.683594 C 158.398438 115.703125 158.292969 115.71875 158.1875 115.753906 C 158.167969 115.753906 158.167969 115.773438 158.152344 115.773438 C 158.117188 115.789062 158.082031 115.808594 158.046875 115.824219 C 158.027344 115.824219 158.011719 115.84375 157.996094 115.84375 C 157.976562 115.84375 157.960938 115.859375 157.941406 115.859375 L 150.105469 120.445312 L 145.289062 120.445312 C 144.515625 120.445312 143.882812 121.078125 143.882812 121.851562 L 143.882812 160.601562 C 143.882812 160.636719 143.882812 160.671875 143.882812 160.707031 C 143.882812 160.722656 143.882812 160.742188 143.882812 160.742188 C 143.882812 160.777344 143.882812 160.792969 143.902344 160.828125 C 143.902344 160.847656 143.902344 160.863281 143.917969 160.882812 C 143.917969 160.898438 143.917969 160.917969 143.9375 160.933594 C 143.972656 161.09375 144.042969 161.25 144.128906 161.390625 C 144.199219 161.496094 144.289062 161.601562 144.394531 161.671875 C 144.394531 161.671875 144.394531 161.671875 144.410156 161.671875 C 144.429688 161.691406 144.445312 161.707031 144.480469 161.726562 C 144.5 161.742188 144.515625 161.742188 144.535156 161.761719 C 144.550781 161.777344 144.570312 161.777344 144.585938 161.796875 C 144.605469 161.8125 144.640625 161.832031 144.65625 161.847656 C 144.671875 161.847656 144.671875 161.867188 144.691406 161.867188 C 144.726562 161.882812 144.761719 161.902344 144.796875 161.917969 L 160.121094 168.085938 L 137.082031 177.347656 C 137.03125 177.367188 136.976562 177.402344 136.90625 177.417969 C 136.890625 177.417969 136.871094 177.4375 136.871094 177.4375 C 136.820312 177.472656 136.765625 177.507812 136.714844 177.542969 C 136.660156 177.578125 136.609375 177.628906 136.574219 177.664062 C 136.574219 177.664062 136.554688 177.683594 136.554688 177.683594 C 136.503906 177.734375 136.46875 177.789062 136.433594 177.839844 C 136.398438 177.894531 136.363281 177.945312 136.328125 178.015625 C 136.328125 178.015625 136.328125 178.035156 136.328125 178.035156 C 136.292969 178.085938 136.273438 178.15625 136.257812 178.226562 C 136.257812 178.226562 136.257812 178.246094 136.257812 178.246094 C 136.238281 178.316406 136.222656 178.367188 136.203125 178.4375 C 136.203125 178.4375 136.203125 178.4375 136.203125 178.457031 C 136.203125 178.457031 136.203125 178.472656 136.203125 178.472656 C 136.1875 178.542969 136.1875 178.597656 136.1875 178.667969 C 136.1875 178.667969 136.1875 178.683594 136.1875 178.683594 C 136.1875 178.71875 136.1875 178.773438 136.1875 178.808594 C 136.1875 178.808594 136.1875 178.824219 136.1875 178.824219 C 136.1875 178.859375 136.203125 178.894531 136.203125 178.945312 C 136.203125 178.945312 136.203125 178.964844 136.203125 178.964844 C 136.203125 179 136.222656 179.035156 136.238281 179.070312 C 136.238281 179.085938 136.238281 179.085938 136.257812 179.105469 C 136.273438 179.140625 136.273438 179.175781 136.292969 179.210938 C 136.292969 179.226562 136.292969 179.226562 136.308594 179.246094 C 136.328125 179.28125 136.34375 179.316406 136.363281 179.332031 C 136.363281 179.351562 136.378906 179.351562 136.378906 179.367188 C 136.398438 179.402344 136.414062 179.421875 136.433594 179.457031 C 136.433594 179.457031 136.449219 179.472656 136.449219 179.472656 C 136.46875 179.507812 136.484375 179.527344 136.519531 179.5625 C 136.519531 179.5625 136.539062 179.578125 136.539062 179.578125 C 136.554688 179.613281 136.589844 179.632812 136.609375 179.667969 C 136.609375 179.667969 136.625 179.683594 136.625 179.683594 C 136.660156 179.703125 136.679688 179.738281 136.714844 179.753906 C 136.714844 179.753906 136.730469 179.773438 136.730469 179.773438 C 136.765625 179.789062 136.785156 179.824219 136.820312 179.84375 C 136.820312 179.84375 136.835938 179.859375 136.835938 179.859375 C 136.871094 179.878906 136.890625 179.894531 136.925781 179.914062 C 136.941406 179.914062 136.941406 179.929688 136.960938 179.929688 C 136.996094 179.949219 137.011719 179.964844 137.046875 179.964844 C 137.066406 179.964844 137.082031 179.984375 137.082031 179.984375 C 137.117188 180 137.136719 180 137.171875 180.019531 C 137.1875 180.019531 137.207031 180.035156 137.222656 180.035156 C 137.242188 180.035156 137.277344 180.054688 137.292969 180.054688 C 137.3125 180.054688 137.328125 180.054688 137.363281 180.070312 C 137.382812 180.070312 137.398438 180.070312 137.417969 180.070312 L 152.246094 182.179688 L 144.410156 193.691406 C 144.058594 194.199219 144.09375 194.886719 144.480469 195.359375 C 144.761719 195.695312 145.164062 195.886719 145.570312 195.886719 C 145.746094 195.886719 145.921875 195.851562 146.097656 195.78125 L 187.464844 179.085938 L 228.917969 195.765625 C 229.09375 195.835938 229.269531 195.871094 229.445312 195.871094 C 229.867188 195.871094 230.273438 195.675781 230.535156 195.34375 C 230.921875 194.867188 230.957031 194.183594 230.605469 193.671875 L 222.769531 182.164062 L 237.601562 180.054688 C 237.617188 180.054688 237.617188 180.054688 237.636719 180.054688 C 237.652344 180.054688 237.6875 180.035156 237.707031 180.035156 C 237.722656 180.035156 237.742188 180.019531 237.777344 180.019531 C 237.792969 180.019531 237.828125 180 237.847656 180 C 237.863281 180 237.882812 179.984375 237.917969 179.984375 C 237.933594 179.984375 237.953125 179.964844 237.96875 179.964844 C 237.988281 179.949219 238.023438 179.949219 238.039062 179.929688 C 238.058594 179.929688 238.074219 179.914062 238.09375 179.894531 C 238.109375 179.878906 238.144531 179.859375 238.164062 179.859375 C 238.179688 179.84375 238.199219 179.84375 238.199219 179.824219 C 238.214844 179.808594 238.25 179.789062 238.269531 179.773438 C 238.285156 179.753906 238.285156 179.753906 238.304688 179.738281 C 238.320312 179.71875 238.355469 179.703125 238.375 179.683594 C 238.390625 179.667969 238.390625 179.667969 238.40625 179.648438 C 238.425781 179.632812 238.441406 179.613281 238.460938 179.578125 C 238.476562 179.5625 238.476562 179.5625 238.496094 179.542969 C 238.53125 179.507812 238.546875 179.492188 238.566406 179.457031 Z M 164.863281 166.960938 C 164.636719 166.769531 164.339844 166.644531 164.023438 166.628906 L 146.695312 159.652344 L 146.695312 123.257812 L 149.085938 123.257812 L 149.085938 157.070312 C 149.085938 157.140625 149.085938 157.210938 149.101562 157.261719 C 149.101562 157.28125 149.121094 157.296875 149.121094 157.332031 C 149.121094 157.367188 149.136719 157.421875 149.15625 157.457031 C 149.15625 157.472656 149.171875 157.507812 149.171875 157.527344 C 149.191406 157.5625 149.207031 157.597656 149.207031 157.632812 C 149.226562 157.648438 149.226562 157.683594 149.242188 157.703125 C 149.261719 157.738281 149.277344 157.773438 149.296875 157.808594 C 149.3125 157.824219 149.332031 157.859375 149.347656 157.878906 C 149.367188 157.914062 149.402344 157.949219 149.417969 157.964844 C 149.4375 157.984375 149.453125 158 149.472656 158.019531 C 149.507812 158.054688 149.523438 158.070312 149.558594 158.105469 C 149.578125 158.125 149.59375 158.140625 149.613281 158.160156 C 149.648438 158.195312 149.683594 158.210938 149.71875 158.230469 C 149.734375 158.246094 149.753906 158.246094 149.769531 158.265625 C 149.824219 158.300781 149.875 158.316406 149.945312 158.351562 L 186.9375 173.21875 C 186.972656 173.234375 187.007812 173.234375 187.042969 173.253906 C 187.042969 173.253906 187.058594 173.253906 187.058594 173.253906 C 187.113281 173.269531 187.183594 173.289062 187.234375 173.289062 C 187.253906 173.289062 187.269531 173.289062 187.269531 173.289062 C 187.324219 173.289062 187.394531 173.304688 187.445312 173.304688 C 187.5 173.304688 187.570312 173.304688 187.621094 173.289062 C 187.640625 173.289062 187.65625 173.289062 187.65625 173.289062 C 187.710938 173.269531 187.78125 173.269531 187.832031 173.253906 C 187.832031 173.253906 187.851562 173.253906 187.851562 173.253906 C 187.886719 173.234375 187.921875 173.234375 187.957031 173.21875 L 224.789062 158.300781 L 224.929688 158.246094 C 224.929688 158.246094 224.929688 158.246094 224.945312 158.246094 C 224.980469 158.230469 225.035156 158.210938 225.070312 158.195312 C 225.085938 158.175781 225.105469 158.175781 225.121094 158.160156 C 225.175781 158.125 225.226562 158.089844 225.28125 158.054688 C 225.296875 158.054688 225.296875 158.035156 225.316406 158.035156 C 225.351562 158 225.386719 157.964844 225.4375 157.929688 C 225.457031 157.914062 225.472656 157.894531 225.472656 157.878906 C 225.507812 157.84375 225.527344 157.808594 225.542969 157.789062 C 225.5625 157.773438 225.578125 157.753906 225.578125 157.71875 C 225.597656 157.683594 225.613281 157.648438 225.632812 157.632812 C 225.648438 157.613281 225.648438 157.578125 225.667969 157.5625 C 225.683594 157.527344 225.703125 157.492188 225.71875 157.457031 C 225.738281 157.4375 225.738281 157.402344 225.738281 157.386719 C 225.753906 157.351562 225.753906 157.316406 225.773438 157.28125 C 225.773438 157.246094 225.789062 157.226562 225.789062 157.191406 C 225.789062 157.15625 225.808594 157.121094 225.808594 157.085938 C 225.808594 157.070312 225.808594 157.050781 225.808594 157.050781 C 225.808594 157.035156 225.808594 157.035156 225.808594 157.015625 C 225.808594 157 225.808594 156.980469 225.808594 156.964844 L 225.808594 123.257812 L 228.410156 123.257812 L 228.410156 159.5625 L 210.871094 166.609375 C 210.554688 166.628906 210.273438 166.75 210.027344 166.945312 L 187.464844 176.046875 Z M 188.871094 164.941406 L 210.097656 156.402344 L 216.160156 153.957031 L 221.1875 156.734375 L 188.871094 169.828125 Z M 186.058594 169.84375 L 153.6875 156.839844 L 158.679688 153.941406 L 186.058594 164.941406 Z M 157.273438 151.480469 L 151.894531 154.609375 L 151.894531 122.660156 L 157.273438 119.53125 Z M 223.03125 154.554688 L 217.65625 151.585938 L 217.65625 119.53125 L 223.03125 122.660156 Z M 214.84375 151.464844 L 188.871094 161.902344 L 188.871094 129.601562 L 214.84375 119.164062 Z M 160.085938 119.164062 L 186.058594 129.601562 L 186.058594 161.902344 L 160.085938 151.464844 Z M 149.242188 191.425781 L 155.746094 181.882812 C 156.027344 181.476562 156.0625 180.96875 155.867188 180.527344 C 155.675781 180.089844 155.253906 179.773438 154.777344 179.703125 L 142.917969 178.015625 L 163.847656 169.597656 L 183.703125 177.558594 Z M 219.183594 181.863281 L 225.683594 191.40625 L 191.242188 177.558594 L 211.082031 169.582031 L 232.011719 178 L 220.148438 179.683594 C 219.675781 179.753906 219.253906 180.070312 219.058594 180.511719 C 218.867188 180.949219 218.902344 181.460938 219.183594 181.863281 Z M 219.183594 181.863281 " fill-opacity="1" fill-rule="nonzero"/></g></svg>